<svg width="253" height="57" xmlns="http://www.w3.org/2000/svg" fill="none">
 <defs>
  <linearGradient y2="1.20124" x2="0.63881" y1="-0.00402" x1="0.00436" id="paint0_linear">
   <stop stop-color="#C2570F"/>
   <stop stop-color="#FFB546" offset="0.51563"/>
   <stop stop-color="#DE611A" offset="1"/>
  </linearGradient>
  <linearGradient y2="0.96987" x2="1.0597" y1="-0.00402" x1="0.00437" id="paint1_linear">
   <stop stop-color="#C2570F"/>
   <stop stop-color="#FFAB2D" offset="0.51563"/>
   <stop stop-color="#DE611A" offset="1"/>
  </linearGradient>
  <linearGradient y2="1.01323" x2="0.98082" y1="-0.00402" x1="0.00437" id="paint2_linear">
   <stop stop-color="#C2570F"/>
   <stop stop-color="#FFAB2D" offset="0.51563"/>
   <stop stop-color="#DE611A" offset="1"/>
  </linearGradient>
  <linearGradient y2="1.17728" x2="0.68234" y1="-0.00403" x1="0.00438" id="paint3_linear">
   <stop stop-color="#C2570F"/>
   <stop stop-color="#FFB546" offset="0.51563"/>
   <stop stop-color="#DE611A" offset="1"/>
  </linearGradient>
 </defs>
 <g>
  <title>Layer 1</title>
  <path id="svg_1" fill="url(#paint0_linear)" d="m217.901,27.7552c2.163,-1.7978 4.261,-3.5411 6.428,-5.3423c2.01,1.4981 2.518,3.6721 2.737,6.1283c2.466,-2.0674 4.849,-4.0651 7.302,-6.1216c1.759,2.0758 4.111,3.5705 5.283,6.2929c2.513,-2.1068 4.974,-4.1717 7.526,-6.3122c1.315,1.4183 2.678,2.7258 3.847,4.1894c1.374,1.7214 1.965,3.7695 1.958,5.994c-0.015,4.8284 -0.058,9.6568 0.016,14.4844c0.044,2.8156 -1.024,5.0359 -3.094,6.8312c-1.381,1.1991 -2.913,2.153 -4.775,2.8483c0,-0.4618 0,-0.7893 0,-1.1168c0,-7.6516 -0.006,-15.3032 0.008,-22.9548c0.001,-1.0765 -0.142,-2.0581 -1.207,-2.5863c-1.184,-0.587 -2.356,-0.3729 -3.467,0.2317c-0.16,0.0874 -0.275,0.4073 -0.276,0.6206c-0.014,5.7597 -0.015,11.5194 -0.005,17.2799c0.001,1.1135 0.509,2.0036 1.435,2.7661c-1.939,1.6475 -3.837,3.2606 -5.803,4.9308c-0.305,-0.2796 -0.61,-0.5164 -0.864,-0.8002c-1.685,-1.8835 -2.54,-4.092 -2.545,-6.6313c-0.01,-5.1946 -0.033,-10.3891 -0.035,-15.5845c0,-1.1765 -0.078,-2.3 -1.328,-2.8568c-1.339,-0.5962 -2.587,-0.2376 -3.754,0.4971c-0.161,0.1016 -0.266,0.4182 -0.267,0.6357c-0.013,5.816 -0.046,11.6336 0.035,17.4487c0.011,0.7776 0.613,1.5476 1.011,2.4856c-1.783,1.4745 -3.766,3.1145 -5.886,4.8679c-0.585,-0.6953 -1.205,-1.3041 -1.672,-2.0137c-1.099,-1.666 -1.585,-3.5403 -1.589,-5.5313c-0.013,-5.7882 -0.021,-11.5764 -0.002,-17.3638c0.003,-1.1958 -0.186,-2.3009 -1.017,-3.317z"/>
  <path id="svg_2" fill="#ffffff" d="m91.0394,22.4003c1.6011,1.1497 2.1777,2.4922 2.7092,6.3044c1.2454,-1.0729 2.4386,-2.0998 3.6302,-3.1284c1.2036,-1.0386 2.4049,-2.0798 3.6572,-3.1635c2.223,2.3361 4.795,4.3691 5.452,7.8423c0.151,0.7924 0.231,1.6122 0.234,2.4196c0.022,4.7431 -0.051,9.4879 0.034,14.2294c0.051,2.8904 -0.972,5.1722 -3.041,7.0165c-1.34,1.1948 -2.834,2.1157 -4.5889,2.827c0,-0.4157 0,-0.7405 0,-1.0645c0,-7.6344 0,-15.268 0,-22.9024c0,-2.4805 -1.508,-3.6068 -3.7981,-2.8328c-0.2553,0.086 -0.497,0.2146 -0.7475,0.3156c-0.7066,0.2847 -0.9612,0.7656 -0.9547,1.598c0.0425,5.1923 0.0401,10.3846 0.0088,15.5769c-0.008,1.3459 0.0787,2.5957 1.3361,3.4331c-2.021,1.72 -3.9586,3.3681 -5.9242,5.0404c-2.0114,-1.7116 -3.0111,-3.9383 -3.1645,-6.5215c-0.1461,-2.4613 -0.0947,-4.936 -0.1036,-7.4056c-0.0136,-3.6486 -0.0209,-7.2971 0.0072,-10.9457c0.0097,-1.1864 -0.1525,-2.2885 -0.9643,-3.3163c2.0933,-1.7917 4.1625,-3.5633 6.2181,-5.3225z"/>
  <path id="svg_3" fill="url(#paint1_linear)" d="m213.506,38.837c0,2.0631 -0.024,4.127 0.006,6.1901c0.041,2.9693 -1.128,5.372 -3.352,7.2913c-4.619,3.9865 -12.367,3.9016 -16.894,-0.1841c-2.086,-1.8823 -3.167,-4.2094 -3.152,-7.0417c0.021,-3.9571 0.005,-7.9142 0.005,-11.8714c0,-4.7953 2.275,-8.2253 6.815,-9.8529c5.135,-1.8411 9.889,-1.1181 13.939,2.7045c1.785,1.6848 2.631,3.8504 2.632,6.3187c0.003,2.1496 0.001,4.2976 0.001,6.4455zm-15.424,0.2926c-0.05,0 -0.1,0 -0.15,0c0,2.1202 -0.038,4.2413 0.011,6.3598c0.045,1.8966 0.22,3.7873 1.101,5.5217c0.576,1.1358 1.451,1.8899 2.796,1.8789c1.305,-0.01 2.265,-0.707 2.701,-1.8587c0.475,-1.2518 0.953,-2.5885 0.994,-3.9008c0.15,-4.8567 0.158,-9.7193 0.138,-14.5802c-0.007,-1.8377 -0.28,-3.6687 -1.143,-5.3417c-0.572,-1.1089 -1.362,-1.963 -2.739,-1.9521c-1.337,0.0101 -2.201,0.8087 -2.648,1.9311c-0.476,1.1929 -0.945,2.4657 -1.014,3.7259c-0.151,2.7314 -0.047,5.4763 -0.047,8.2161z"/>
  <path id="svg_4" fill="url(#paint2_linear)" d="m187.107,47.5126c0.153,0.9669 0.203,1.808 -0.813,2.4887c-1.231,0.8251 -2.386,1.7744 -3.491,2.759c-4.001,3.5622 -12.144,3.5589 -16.51,-1.6452c-2.828,-3.37 -3.886,-7.2882 -3.959,-11.5471c-0.06,-3.5161 0.442,-6.923 2.157,-10.0706c3.75,-6.8836 10.775,-8.0705 15.96,-6.4572c4.302,1.3388 6.781,5.0706 6.291,9.2598c-0.248,2.1102 -1.782,3.6445 -3.768,3.7796c-1.549,0.1058 -2.873,-0.3214 -3.705,-1.6736c-0.893,-1.4513 -0.829,-2.984 -0.014,-4.4327c0.396,-0.7034 1.009,-1.2926 1.542,-1.9179c0.767,-0.8998 0.681,-1.4983 -0.334,-2.1438c-2.438,-1.5503 -5.797,-0.7881 -7.31,1.6771c-0.923,1.5049 -1.306,3.1879 -1.505,4.9035c-0.503,4.3118 -0.548,8.6194 0.429,12.88c0.224,0.9787 0.593,1.9524 1.059,2.8454c1.225,2.3469 3.343,3.2819 6.138,2.869c2.659,-0.392 4.964,-1.5386 7.079,-3.1099c0.206,-0.1527 0.413,-0.3021 0.622,-0.4507c0.018,-0.0126 0.051,-0.0059 0.132,-0.0134z"/>
  <path id="svg_5" fill="#ffffff" d="m71.584,22.4003c2.2475,3.3568 5.2621,3.3477 8.6617,2.4411c-1.6674,1.5704 -3.2783,3.2109 -5.0226,4.6837c-1.068,0.9016 -2.4175,1.0867 -3.7961,0.7356c-1.2524,-0.3186 -2.1011,-1.1159 -2.6044,-2.3277c-1.5841,1.2619 -1.4838,3.492 0.3342,4.7355c1.6675,1.1409 3.4886,2.0399 5.2208,3.0833c1.1902,0.7172 2.4369,1.3828 3.4927,2.2785c1.5381,1.3052 2.5405,3.0449 2.5639,5.1499c0.0122,1.0917 -0.1512,2.2727 -0.5639,3.2676c-1.8139,4.371 -4.9053,7.3392 -9.4433,8.5235c-3.4134,0.8898 -6.2297,-0.3361 -8.1003,-3.4336c-1.2807,-2.1209 -1.2815,-2.1217 0.5275,-3.6771c1.7274,-1.4853 3.4579,-2.9665 5.2403,-4.4952c0.1586,0.9324 0.2427,1.788 0.4555,2.6079c0.6116,2.3577 2.2743,3.7296 4.2937,3.6137c1.9037,-0.1093 2.919,-1.9749 1.9401,-3.6704c-0.3075,-0.533 -0.7767,-1.0425 -1.2905,-1.3586c-1.7718,-1.0876 -3.58,-2.1142 -5.4029,-3.1092c-1.9595,-1.07 -3.6739,-2.3969 -4.7718,-4.436c-1.7241,-3.2026 -1.1286,-6.4618 1.5898,-8.8129c2.2088,-1.9073 4.407,-3.8272 6.6756,-5.7996z"/>
  <path id="svg_6" fill="#ffffff" d="m145.82,24.676c-1.354,1.4421 -2.646,2.9175 -4.046,4.2729c-0.942,0.9111 -2.108,1.4688 -3.458,1.4463c-1.723,-0.0283 -3.006,-0.7819 -3.72,-2.4524c-1.1,0.8452 -1.432,2.089 -0.771,3.3402c0.312,0.5918 0.78,1.1895 1.325,1.5379c1.63,1.042 3.302,2.0248 5.015,2.9109c1.589,0.8227 3.113,1.7055 4.265,3.1376c1.746,2.1715 2.343,4.6097 1.294,7.283c-1.818,4.6339 -5.04,7.7082 -9.786,8.871c-3.402,0.8328 -6.257,-0.616 -8.026,-3.8836c-0.98,-1.8114 -0.981,-1.8123 0.522,-3.1085c1.623,-1.3996 3.246,-2.7975 4.872,-4.1929c0.178,-0.1525 0.377,-0.2793 0.565,-0.4168c0.196,1.0145 0.298,1.9906 0.58,2.9067c0.67,2.1832 2.272,3.3727 4.204,3.2393c1.794,-0.1242 2.8,-1.8414 1.963,-3.4894c-0.301,-0.5918 -0.796,-1.1745 -1.344,-1.5171c-1.804,-1.127 -3.658,-2.1698 -5.52,-3.1934c-2.475,-1.3613 -4.494,-3.1568 -5.304,-6.0419c-0.749,-2.6691 -0.107,-4.999 1.931,-6.8303c2.287,-2.0557 4.625,-4.0513 6.966,-6.0952c2.213,3.3168 5.2,3.3785 8.473,2.2757z"/>
  <path id="svg_7" fill="#ffffff" d="m121.358,22.4004c0,0.5607 0,0.8852 0,1.2106c0,7.7469 0.006,15.4939 -0.007,23.2416c-0.002,1.3709 0.225,2.6216 1.492,3.5396c-1.969,1.6365 -3.878,3.224 -5.848,4.8621c-2.213,-1.9463 -3.373,-4.3332 -3.38,-7.2417c-0.013,-5.0821 -0.011,-10.165 0.001,-15.247c0.002,-1.1068 -0.222,-2.1246 -1.01,-3.072c2.864,-2.3869 5.717,-4.7641 8.752,-7.2932z"/>
  <path id="svg_8" fill="#ffffff" d="m117.724,10.4536c1.674,1.7098 3.441,3.5161 5.119,5.2308c-1.661,1.6935 -3.428,3.4957 -5.123,5.2227c-1.656,-1.6927 -3.435,-3.5112 -5.114,-5.226c1.661,-1.6967 3.43,-3.503 5.118,-5.2275z"/>
  <path id="svg_9" fill="#ffffff" d="m55.5939,22.4004c0,0.5007 0,0.7898 0,1.0798c-0.0033,7.9901 -0.0033,15.9794 -0.0149,23.9695c-0.0016,1.1754 0.4062,2.1425 1.4558,2.947c-1.9604,1.6288 -3.8819,3.224 -5.848,4.8576c-2.1837,-1.9031 -3.3682,-4.2474 -3.3922,-7.0867c-0.0439,-5.1614 -0.0248,-10.3237 -0.0083,-15.4852c0.0033,-1.0847 -0.2283,-2.0649 -0.9884,-2.9715c2.8851,-2.3974 5.7603,-4.7874 8.796,-7.3105z"/>
  <path id="svg_10" fill="#ffffff" d="m57.0348,15.6726c-1.6954,1.7383 -3.4606,3.5469 -5.1077,5.2345c-1.6579,-1.6917 -3.4436,-3.5142 -5.1292,-5.2337c1.6873,-1.7171 3.4775,-3.5396 5.1283,-5.2198c1.6525,1.6884 3.4203,3.4945 5.1086,5.219z"/>
  <path id="svg_11" fill="#333333" d="m152,51.7097c0.005,-2.0824 1.609,-3.7105 3.654,-3.7097c2.1,0.0008 3.674,1.6281 3.658,3.781c-0.016,2.0807 -1.636,3.7039 -3.681,3.6856c-2.01,-0.0182 -3.636,-1.6994 -3.631,-3.7569z"/>
  <path id="svg_12" fill="#ffffff" d="m13.8158,44.7421c1.7727,-1.8868 2.118,-4.2174 2.1347,-6.5875c0.0501,-7.3041 0.0267,-14.609 0.0092,-21.9139c-0.0067,-2.6362 0.8467,-4.8632 2.8363,-6.6212c2.2373,-1.97693 4.4688,-3.96061 6.6819,-5.96365c4.5439,-4.11301 10.8371,-2.10997 12.2494,3.89915c0.8493,3.6137 0.0684,6.9572 -1.6141,10.1491c-1.5183,2.882 -3.7006,5.1688 -6.3225,7.0481c-0.1318,0.0943 -0.2586,0.1961 -0.4671,0.3553c1.4181,0.1962 2.7378,0.33 4.0367,0.5767c0.8751,0.1667 1.7443,0.4294 2.5735,0.7603c4.4313,1.7707 6.6861,5.5932 6.4617,10.4455c-0.3453,7.4648 -4.3445,12.3567 -10.6569,15.5511c-3.6847,1.8641 -7.6246,3.0159 -11.8248,2.7835c-0.8817,-0.0488 -1.8302,-0.1793 -2.6102,-0.5607c-4.5481,-2.2228 -9.03024,-1.6781 -13.51741,0.1423c-0.23274,0.0943 -0.46798,0.181 -0.70323,0.2669c-0.02002,0.0076 -0.05089,-0.016 -0.15766,-0.0548c1.36809,-1.9634 2.93472,-3.7046 4.75995,-5.2042c2.73615,-2.2472 5.78515,-3.7551 9.36645,-3.9959c2.7862,-0.1869 5.3906,0.4925 7.8965,1.657c0.3003,0.1397 0.5948,0.2921 1.0252,0.5043c0,-0.4286 0,-0.7519 0,-1.0752c0,-9.9941 -0.0058,-19.9891 0.0076,-29.9833c0.0016,-1.1762 0.1468,-2.3693 -1.283,-2.9755c0.6656,-0.6517 1.2196,-1.1947 1.7543,-1.7193c0.5372,0.5406 1.0669,1.0727 1.6258,1.6351c0.0034,-0.021 0.0134,0.0564 -0.0167,0.0775c-1.0811,0.7696 -1.2613,1.8405 -1.2145,3.106c0.085,2.3188 0.0241,4.6426 0.0241,6.9639c0,0.3014 0,0.6029 0,0.9043c0.0951,0.0522 0.1894,0.1044 0.2845,0.1574c0.6315,-0.7577 1.3573,-1.4557 1.8753,-2.2851c1.4532,-2.3229 1.8052,-4.9642 1.9312,-7.64c0.0976,-2.0788 -0.1118,-4.1332 -0.8084,-6.10254c-0.2411,-0.68284 -0.5706,-1.3682 -1.0035,-1.94242c-1.3865,-1.83801 -3.8549,-1.76645 -4.9702,0.24922c-0.5481,0.991 -0.8751,2.24132 -0.8876,3.37884c-0.0801,7.3318 -0.1226,14.667 -0.0225,21.998c0.0684,4.9744 -2.581,9.1926 -7.4244,11.2588c-0.6624,0.2821 -1.3522,0.506 -2.0296,0.7569zm13.1462,-18.0803c-0.0392,0.1801 -0.0818,0.2862 -0.0818,0.3923c-0.0042,6.9858 -0.01,13.9724 -0.0008,20.9582c0.0008,0.8024 0.9026,1.3059 1.5991,0.906c1.6501,-0.9455 2.9072,-2.296 3.8349,-3.9505c1.6233,-2.8964 2.1272,-6.0479 1.942,-9.3239c-0.1251,-2.2127 -0.7391,-4.289 -2.0855,-6.0791c-1.2997,-1.726 -3.0415,-2.674 -5.2079,-2.903z"/>
  <path id="svg_13" fill="#ffffff" d="m14.6232,13.4403c-0.6204,1.9098 -0.6743,3.839 -0.6718,5.7797c0.0091,5.7081 -0.0713,11.4178 0.0249,17.1243c0.0904,5.314 -2.5725,8.7337 -7.31624,10.8604c-0.48018,0.2154 -0.9786,0.3901 -1.47122,0.5778c-0.04312,0.0163 -0.10366,-0.0097 -0.24713,-0.0268c1.80211,-1.6074 1.86597,-3.7049 1.86679,-5.8195c0.00166,-2.6216 0,-5.2441 0,-7.8657c0,-0.2974 0,-0.594 0,-0.8769c-1.80625,-0.3242 -2.76163,0.5762 -4.0479,3.8504c-1.11378,-3.2181 -1.96549,-6.2916 -0.58052,-9.4845c0.75551,-1.7424 2.0451,-2.5282 4.62842,-2.9622c0,-0.6436 0.00913,-1.314 -0.00165,-1.9845c-0.02406,-1.453 0.42212,-2.7695 1.37501,-3.8593c1.84354,-2.1072 4.07114,-3.7846 6.44134,-5.3132z"/>
  <path id="svg_14" fill="#ffffff" d="m0,8.31959c1.4887,-3.84729 3.26963,-7.35603 7.60297,-8.21606c1.36262,-0.27085 2.63343,0.00615 3.83323,0.63931c0.8992,0.47486 1.8193,0.9682 2.5933,1.63125c2.3094,1.97773 4.7124,1.89771 7.2314,0.57863c0.1996,-0.10464 0.3991,-0.20929 0.6337,-0.3324c0.0159,0.1108 0.061,0.20665 0.0326,0.25678c-1.3,2.27408 -2.8313,4.33799 -4.9236,5.87163c-3.0935,2.26707 -5.782,2.26877 -8.88464,0.03077c-0.1386,-0.10024 -0.2747,-0.20489 -0.40912,-0.3113c-2.64593,-2.09292 -4.49115,-2.18526 -7.34998,-0.36758c-0.11856,0.07475 -0.23963,0.14598 -0.35986,0.21897z"/>
  <path id="svg_15" fill="url(#paint3_linear)" d="m152,51.7113c0.005,-2.0833 1.609,-3.7121 3.653,-3.7113c2.099,0.0008 3.672,1.6288 3.657,3.7826c-0.016,2.0816 -1.636,3.7055 -3.68,3.6872c-2.01,-0.0182 -3.635,-1.7001 -3.63,-3.7585z"/>
 </g>
</svg>